<svg width="96" height="30" viewBox="0 0 96 30" fill="none" xmlns="http://www.w3.org/2000/svg">
<path d="M27.2569 12.5519H26.25V12.5H15V17.5H22.0644C21.0338 20.4106 18.2644 22.5 15 22.5C10.8581 22.5 7.5 19.1419 7.5 15C7.5 10.8581 10.8581 7.5 15 7.5C16.9119 7.5 18.6513 8.22125 19.9756 9.39937L23.5112 5.86375C21.2787 3.78312 18.2925 2.5 15 2.5C8.09688 2.5 2.5 8.09688 2.5 15C2.5 21.9031 8.09688 27.5 15 27.5C21.9031 27.5 27.5 21.9031 27.5 15C27.5 14.1619 27.4137 13.3438 27.2569 12.5519Z" fill="#FFC107"/>
<path d="M3.94141 9.18188L8.04828 12.1938C9.15953 9.4425 11.8508 7.5 15.0002 7.5C16.912 7.5 18.6514 8.22125 19.9758 9.39937L23.5114 5.86375C21.2789 3.78312 18.2927 2.5 15.0002 2.5C10.1989 2.5 6.03516 5.21062 3.94141 9.18188Z" fill="#FF3D00"/>
<path d="M14.9992 27.4999C18.228 27.4999 21.1617 26.2643 23.3798 24.2549L19.5111 20.9812C18.2139 21.9677 16.6289 22.5012 14.9992 22.4999C11.748 22.4999 8.98734 20.4268 7.94734 17.5337L3.87109 20.6743C5.93984 24.7224 10.1411 27.4999 14.9992 27.4999Z" fill="#4CAF50"/>
<path d="M27.2569 12.5519H26.25V12.5H15V17.5H22.0644C21.5714 18.8853 20.6833 20.0957 19.51 20.9819L19.5119 20.9806L23.3806 24.2544C23.1069 24.5031 27.5 21.25 27.5 15C27.5 14.1619 27.4137 13.3438 27.2569 12.5519Z" fill="#1976D2"/>
<path d="M40.44 21.1189C39.44 21.1189 38.53 20.8589 37.71 20.3389C36.89 19.8189 36.2367 19.0822 35.75 18.1289C35.2633 17.1756 35.02 16.0456 35.02 14.7389C35.02 13.6522 35.1767 12.6956 35.49 11.8689C35.8033 11.0422 36.2333 10.3489 36.78 9.78891C37.3267 9.22891 37.9533 8.80891 38.66 8.52891C39.3733 8.24224 40.1267 8.09891 40.92 8.09891C41.9 8.09891 42.76 8.30224 43.5 8.70891C44.24 9.10891 44.8733 9.74557 45.4 10.6189L43.92 11.1389C43.4733 10.5856 42.9933 10.1789 42.48 9.91891C41.9733 9.65224 41.4333 9.51891 40.86 9.51891C40.1067 9.51891 39.4133 9.72891 38.78 10.1489C38.1467 10.5689 37.6367 11.1689 37.25 11.9489C36.87 12.7289 36.68 13.6589 36.68 14.7389C36.68 15.6989 36.8367 16.5522 37.15 17.2989C37.4633 18.0389 37.9067 18.6222 38.48 19.0489C39.06 19.4689 39.7467 19.6789 40.54 19.6789C41.1467 19.6789 41.69 19.5389 42.17 19.2589C42.6567 18.9789 43.04 18.5589 43.32 17.9989C43.6 17.4322 43.74 16.7189 43.74 15.8589H44.22C44.22 16.9256 44.0933 17.8522 43.84 18.6389C43.5867 19.4256 43.18 20.0356 42.62 20.4689C42.0667 20.9022 41.34 21.1189 40.44 21.1189ZM44.02 20.8789L43.74 17.9189V15.8189L40.58 15.7189V14.6589H45.26V20.8789H44.02ZM52.3511 21.1189C51.4911 21.1189 50.7244 20.9289 50.0511 20.5489C49.3844 20.1689 48.8578 19.6056 48.4711 18.8589C48.0844 18.1122 47.8911 17.1922 47.8911 16.0989C47.8911 14.9989 48.0844 14.0789 48.4711 13.3389C48.8578 12.5922 49.3844 12.0289 50.0511 11.6489C50.7244 11.2689 51.4911 11.0789 52.3511 11.0789C53.2044 11.0789 53.9644 11.2689 54.6311 11.6489C55.3044 12.0289 55.8311 12.5922 56.2111 13.3389C56.5978 14.0789 56.7911 14.9989 56.7911 16.0989C56.7911 17.1922 56.5978 18.1122 56.2111 18.8589C55.8311 19.6056 55.3044 20.1689 54.6311 20.5489C53.9644 20.9289 53.2044 21.1189 52.3511 21.1189ZM52.3111 19.7589C52.9311 19.7589 53.4578 19.6122 53.8911 19.3189C54.3244 19.0189 54.6511 18.5956 54.8711 18.0489C55.0978 17.5022 55.2111 16.8522 55.2111 16.0989C55.2111 14.9589 54.9744 14.0622 54.5011 13.4089C54.0278 12.7489 53.3244 12.4189 52.3911 12.4189C51.7644 12.4189 51.2344 12.5689 50.8011 12.8689C50.3744 13.1622 50.0478 13.5856 49.8211 14.1389C49.6011 14.6856 49.4911 15.3389 49.4911 16.0989C49.4911 17.2256 49.7278 18.1189 50.2011 18.7789C50.6811 19.4322 51.3844 19.7589 52.3111 19.7589ZM63.2886 21.1189C62.4286 21.1189 61.6619 20.9289 60.9886 20.5489C60.3219 20.1689 59.7953 19.6056 59.4086 18.8589C59.0219 18.1122 58.8286 17.1922 58.8286 16.0989C58.8286 14.9989 59.0219 14.0789 59.4086 13.3389C59.7953 12.5922 60.3219 12.0289 60.9886 11.6489C61.6619 11.2689 62.4286 11.0789 63.2886 11.0789C64.1419 11.0789 64.9019 11.2689 65.5686 11.6489C66.2419 12.0289 66.7686 12.5922 67.1486 13.3389C67.5353 14.0789 67.7286 14.9989 67.7286 16.0989C67.7286 17.1922 67.5353 18.1122 67.1486 18.8589C66.7686 19.6056 66.2419 20.1689 65.5686 20.5489C64.9019 20.9289 64.1419 21.1189 63.2886 21.1189ZM63.2486 19.7589C63.8686 19.7589 64.3953 19.6122 64.8286 19.3189C65.2619 19.0189 65.5886 18.5956 65.8086 18.0489C66.0353 17.5022 66.1486 16.8522 66.1486 16.0989C66.1486 14.9589 65.9119 14.0622 65.4386 13.4089C64.9653 12.7489 64.2619 12.4189 63.3286 12.4189C62.7019 12.4189 62.1719 12.5689 61.7386 12.8689C61.3119 13.1622 60.9853 13.5856 60.7586 14.1389C60.5386 14.6856 60.4286 15.3389 60.4286 16.0989C60.4286 17.2256 60.6653 18.1189 61.1386 18.7789C61.6186 19.4322 62.3219 19.7589 63.2486 19.7589ZM74.1461 25.7989C73.1661 25.7989 72.3161 25.6589 71.5961 25.3789C70.8761 25.1056 70.3161 24.7356 69.9161 24.2689C69.5228 23.8089 69.3261 23.2989 69.3261 22.7389C69.3261 21.9989 69.5961 21.4322 70.1361 21.0389C70.6828 20.6522 71.3861 20.4589 72.2461 20.4589L73.1061 20.9989C72.3861 20.9989 71.8294 21.1489 71.4361 21.4489C71.0428 21.7489 70.8461 22.1589 70.8461 22.6789C70.8461 23.1989 71.1261 23.6389 71.6861 23.9989C72.2461 24.3589 73.0661 24.5389 74.1461 24.5389C74.9461 24.5389 75.6461 24.4222 76.2461 24.1889C76.8528 23.9622 77.3228 23.6622 77.6561 23.2889C77.9961 22.9222 78.1661 22.5256 78.1661 22.0989C78.1661 21.7989 78.0561 21.5389 77.8361 21.3189C77.6161 21.1056 77.2794 20.9989 76.8261 20.9989H73.1061C72.4594 20.9989 71.8994 20.9022 71.4261 20.7089C70.9594 20.5089 70.5994 20.2489 70.3461 19.9289C70.0928 19.6089 69.9661 19.2589 69.9661 18.8789C69.9661 18.4789 70.0794 18.1389 70.3061 17.8589C70.5328 17.5789 70.8261 17.3656 71.1861 17.2189C71.5528 17.0722 71.9461 16.9989 72.3661 16.9989L72.6661 17.5789C72.4661 17.5789 72.2628 17.6256 72.0561 17.7189C71.8561 17.8056 71.6861 17.9389 71.5461 18.1189C71.4128 18.2922 71.3461 18.5122 71.3461 18.7789C71.3461 19.0856 71.4728 19.3422 71.7261 19.5489C71.9794 19.7556 72.4394 19.8589 73.1061 19.8589H76.8261C77.7261 19.8589 78.4328 20.0489 78.9461 20.4289C79.4661 20.8089 79.7261 21.3389 79.7261 22.0189C79.7261 22.6456 79.5028 23.2456 79.0561 23.8189C78.6094 24.3989 77.9694 24.8722 77.1361 25.2389C76.3028 25.6122 75.3061 25.7989 74.1461 25.7989ZM74.4261 18.0789C73.6928 18.0789 73.0294 17.9322 72.4361 17.6389C71.8494 17.3456 71.3828 16.9356 71.0361 16.4089C70.6961 15.8822 70.5261 15.2722 70.5261 14.5789C70.5261 13.8789 70.6961 13.2656 71.0361 12.7389C71.3828 12.2122 71.8494 11.8056 72.4361 11.5189C73.0294 11.2256 73.6928 11.0789 74.4261 11.0789C75.1394 11.0789 75.7861 11.2256 76.3661 11.5189C76.9528 11.8056 77.4194 12.2122 77.7661 12.7389C78.1128 13.2656 78.2861 13.8789 78.2861 14.5789C78.2861 15.2722 78.1128 15.8822 77.7661 16.4089C77.4194 16.9356 76.9528 17.3456 76.3661 17.6389C75.7861 17.9322 75.1394 18.0789 74.4261 18.0789ZM74.4261 16.9589C75.1594 16.9589 75.7294 16.7322 76.1361 16.2789C76.5428 15.8256 76.7461 15.2589 76.7461 14.5789C76.7461 13.8789 76.5428 13.3122 76.1361 12.8789C75.7294 12.4389 75.1594 12.2189 74.4261 12.2189C73.6994 12.2189 73.1261 12.4389 72.7061 12.8789C72.2928 13.3122 72.0861 13.8789 72.0861 14.5789C72.0861 15.2589 72.2928 15.8256 72.7061 16.2789C73.1261 16.7322 73.6994 16.9589 74.4261 16.9589ZM77.5661 12.5989L76.8261 12.2989C76.8261 11.7389 76.9361 11.2489 77.1561 10.8289C77.3761 10.4022 77.6894 10.0722 78.0961 9.83891C78.5028 9.59891 78.9861 9.47891 79.5461 9.47891L79.4261 11.0189C78.8261 11.0189 78.3661 11.1489 78.0461 11.4089C77.7261 11.6622 77.5661 12.0589 77.5661 12.5989ZM82.0552 20.8789V7.23891H83.6152V20.8789H82.0552ZM90.9806 21.1189C90.154 21.1189 89.414 20.9089 88.7606 20.4889C88.114 20.0622 87.6006 19.4722 87.2206 18.7189C86.8473 17.9656 86.6606 17.0989 86.6606 16.1189C86.6606 15.0722 86.8473 14.1722 87.2206 13.4189C87.594 12.6656 88.104 12.0889 88.7506 11.6889C89.404 11.2822 90.1473 11.0789 90.9806 11.0789C91.7073 11.0789 92.3273 11.2256 92.8406 11.5189C93.354 11.8122 93.7673 12.2089 94.0806 12.7089C94.394 13.2089 94.6106 13.7756 94.7306 14.4089C94.8573 15.0356 94.894 15.6856 94.8406 16.3589H87.9206V15.3989H93.8106L93.3506 15.6989C93.3706 15.3056 93.3473 14.9122 93.2806 14.5189C93.2206 14.1256 93.104 13.7656 92.9306 13.4389C92.7573 13.1056 92.514 12.8389 92.2006 12.6389C91.8873 12.4389 91.4873 12.3389 91.0006 12.3389C90.3873 12.3389 89.874 12.4956 89.4606 12.8089C89.0473 13.1222 88.7373 13.5356 88.5306 14.0489C88.324 14.5556 88.2206 15.1056 88.2206 15.6989V16.3389C88.2206 17.0056 88.3206 17.6022 88.5206 18.1289C88.7273 18.6556 89.034 19.0722 89.4406 19.3789C89.8473 19.6856 90.3606 19.8389 90.9806 19.8389C91.6006 19.8389 92.1106 19.6889 92.5106 19.3889C92.9106 19.0889 93.154 18.6456 93.2406 18.0589H94.8606C94.7606 18.6922 94.534 19.2389 94.1806 19.6989C93.8273 20.1522 93.3773 20.5022 92.8306 20.7489C92.284 20.9956 91.6673 21.1189 90.9806 21.1189Z" fill="black"/>
</svg>
