<svg width="77" height="22" viewBox="0 0 77 22" fill="none" xmlns="http://www.w3.org/2000/svg">
<path fill-rule="evenodd" clip-rule="evenodd" d="M9.25108 0.899414H3.25487C2.8445 0.899414 2.49552 1.19876 2.43143 1.60562L0.00627263 17.0435C-0.0418621 17.3483 0.193163 17.6227 0.500881 17.6227H3.36342C3.77379 17.6227 4.12277 17.3236 4.18687 16.916L4.84086 12.752C4.90398 12.3444 5.25369 12.0451 5.66333 12.0451H7.56145C11.5112 12.0451 13.7907 10.1259 14.3863 6.32319C14.6544 4.65927 14.3976 3.35215 13.6215 2.43659C12.7693 1.43129 11.2578 0.899414 9.25108 0.899414ZM9.94242 6.53777C9.61456 8.69806 7.97061 8.69806 6.38119 8.69806H5.47621L6.11104 4.66352C6.14886 4.41965 6.35908 4.24014 6.60467 4.24014H7.01946C8.10225 4.24014 9.12364 4.24014 9.6514 4.8598C9.96624 5.22942 10.0625 5.7788 9.94242 6.53777Z" fill="#28356A"/>
<path fill-rule="evenodd" clip-rule="evenodd" d="M27.3271 6.3518H24.4557C24.2111 6.3518 23.9997 6.53131 23.9621 6.77518L23.8349 7.5815L23.6342 7.2893C23.0127 6.38337 21.6263 6.08057 20.243 6.08057C17.0697 6.08057 14.3597 8.4936 13.832 11.8784C13.5576 13.5667 13.9476 15.1813 14.9017 16.3072C15.7767 17.3424 17.0287 17.7739 18.5182 17.7739C21.075 17.7739 22.4925 16.1233 22.4925 16.1233L22.3646 16.9244C22.3164 17.2307 22.5515 17.5054 22.8575 17.5054H25.4437C25.8551 17.5054 26.2023 17.206 26.2672 16.7984L27.819 6.93102C27.8681 6.62723 27.6338 6.3518 27.3271 6.3518ZM23.3247 11.9631C23.0477 13.61 21.7458 14.7157 20.0852 14.7157C19.2514 14.7157 18.5851 14.4472 18.1571 13.9385C17.7327 13.4332 17.5716 12.714 17.7064 11.9128C17.9653 10.28 19.289 9.13805 20.9243 9.13805C21.7397 9.13805 22.4025 9.41028 22.8391 9.92317C23.2765 10.4417 23.4502 11.1654 23.3247 11.9631Z" fill="#28356A"/>
<path fill-rule="evenodd" clip-rule="evenodd" d="M42.3978 6.59839H39.5122C39.2369 6.59839 38.9783 6.73573 38.8224 6.96555L34.8427 12.8512L33.1557 7.19511C33.0496 6.84127 32.7245 6.59839 32.3561 6.59839H29.5208C29.176 6.59839 28.9368 6.93645 29.0464 7.26218L32.2247 16.6268L29.2367 20.8621C29.0017 21.1957 29.2384 21.6543 29.6444 21.6543H32.5263C32.7999 21.6543 33.0558 21.5204 33.211 21.2953L42.808 7.38621C43.0378 7.05358 42.8018 6.59839 42.3978 6.59839Z" fill="#28356A"/>
<path fill-rule="evenodd" clip-rule="evenodd" d="M52.0204 0.899414H46.0234C45.614 0.899414 45.2651 1.19876 45.201 1.60562L42.7758 17.0435C42.7277 17.3483 42.9627 17.6227 43.2687 17.6227H46.3461C46.6317 17.6227 46.8763 17.4134 46.921 17.1281L47.6094 12.752C47.6725 12.3444 48.0225 12.0451 48.4319 12.0451H50.3293C54.2797 12.0451 56.5585 10.1259 57.1548 6.32319C57.424 4.65927 57.1654 3.35215 56.3893 2.43659C55.5379 1.43129 54.0273 0.899414 52.0204 0.899414ZM52.7121 6.53777C52.385 8.69806 50.741 8.69806 49.1506 8.69806H48.2469L48.8824 4.66352C48.92 4.41965 49.1288 4.24014 49.3751 4.24014H49.7899C50.8717 4.24014 51.8941 4.24014 52.4218 4.8598C52.7367 5.22942 52.8322 5.7788 52.7121 6.53777Z" fill="#298FC2"/>
<path fill-rule="evenodd" clip-rule="evenodd" d="M70.0928 6.3518H67.2231C66.9768 6.3518 66.7673 6.53131 66.7305 6.77518L66.6033 7.5815L66.4016 7.2893C65.7801 6.38337 64.3947 6.08057 63.0111 6.08057C59.8381 6.08057 57.1291 8.4936 56.6013 11.8784C56.3277 13.5667 56.716 15.1813 57.6699 16.3072C58.5468 17.3424 59.7969 17.7739 61.2866 17.7739C63.8431 17.7739 65.2609 16.1233 65.2609 16.1233L65.1329 16.9244C65.0848 17.2307 65.3196 17.5054 65.6275 17.5054H68.2131C68.6225 17.5054 68.9714 17.206 69.0355 16.7984L70.5881 6.93102C70.6355 6.62723 70.4005 6.3518 70.0928 6.3518ZM66.0904 11.9631C65.8151 13.61 64.5113 14.7157 62.8507 14.7157C62.0186 14.7157 61.3506 14.4472 60.9226 13.9385C60.4985 13.4332 60.3388 12.714 60.4719 11.9128C60.7325 10.28 62.0545 9.13805 63.6898 9.13805C64.5052 9.13805 65.168 9.41028 65.6047 9.92317C66.0438 10.4417 66.2174 11.1654 66.0904 11.9631Z" fill="#298FC2"/>
<path fill-rule="evenodd" clip-rule="evenodd" d="M73.2368 1.32378L70.7758 17.0442C70.7277 17.349 70.9625 17.6235 71.2685 17.6235H73.7427C74.1541 17.6235 74.5028 17.3244 74.5659 16.9168L76.9928 1.47962C77.0412 1.17484 76.8062 0.899414 76.5002 0.899414H73.7297C73.4851 0.900154 73.2746 1.07991 73.2368 1.32378Z" fill="#298FC2"/>
</svg>
