<svg width="44" height="44" viewBox="0 0 44 44" fill="none" xmlns="http://www.w3.org/2000/svg">
<g filter="url(#filter0_d_688_16376)">
<path fill-rule="evenodd" clip-rule="evenodd" d="M34.3087 5.6796C32.703 4.07308 30.7953 2.80003 28.6956 1.93373C26.5959 1.06744 24.3455 0.625008 22.0741 0.631916C12.5416 0.631916 4.78168 8.3531 4.77781 17.8452C4.77359 20.8677 5.57031 23.8374 7.08687 26.4519L4.63281 35.3687L13.8016 32.9751C16.3396 34.35 19.1806 35.0696 22.0671 35.0686H22.0741C31.6058 35.0686 39.3649 27.3467 39.3696 17.8553C39.3754 15.5917 38.9309 13.3494 38.0621 11.2592C37.1932 9.16886 35.9174 7.27223 34.3087 5.6796ZM22.0741 32.1633H22.0679C19.4947 32.1641 16.9683 31.4754 14.7515 30.169L14.2265 29.8589L8.78572 31.2794L10.238 25.9999L9.89606 25.4571C8.45726 23.1792 7.69496 20.5395 7.69787 17.8452C7.69787 9.95735 14.1498 3.53957 22.0795 3.53957C25.8835 3.53278 29.5344 5.03723 32.2292 7.72204C34.9241 10.4068 36.4421 14.0521 36.4495 17.8561C36.4464 25.7448 29.9976 32.1633 22.0741 32.1633ZM29.9589 21.4484C29.527 21.2328 27.4001 20.1923 27.0063 20.0488C26.6124 19.9054 26.3216 19.8333 26.0339 20.2644C25.7463 20.6955 24.9174 21.6601 24.6654 21.9508C24.4134 22.2416 24.1614 22.2734 23.7295 22.0578C23.2976 21.8423 21.9043 21.3887 20.2535 19.9232C18.9687 18.7827 18.1018 17.3746 17.8499 16.9442C17.5979 16.5139 17.8227 16.2805 18.039 16.0665C18.2337 15.8735 18.4709 15.5641 18.6873 15.3129C18.9036 15.0616 18.9757 14.8818 19.1191 14.5949C19.2626 14.308 19.1912 14.0568 19.0835 13.842C18.9757 13.6272 18.1112 11.5096 17.7514 10.6482C17.4001 9.80925 17.0442 9.92323 16.7791 9.91005C16.5271 9.89764 16.2363 9.89454 15.9502 9.89454C15.7315 9.90024 15.5163 9.95096 15.318 10.0435C15.1198 10.1361 14.9427 10.2686 14.798 10.4327C14.4018 10.8638 13.2852 11.9059 13.2852 14.0211C13.2852 16.1363 14.836 18.1833 15.05 18.4702C15.264 18.7571 18.0972 23.1015 22.4323 24.9647C23.2373 25.3095 24.0598 25.6118 24.8965 25.8704C25.9316 26.1976 26.8737 26.1518 27.618 26.0409C28.4484 25.9177 30.1768 25.0004 30.5358 23.9955C30.8948 22.9906 30.8955 22.13 30.7878 21.9508C30.68 21.7717 30.3915 21.6632 29.9589 21.4484Z" fill="white"/>
<path d="M14.4976 30.5998L14.4971 30.5995L14.1514 30.3953L8.91203 31.7632L8.07388 31.982L8.30363 31.1468L9.69743 26.0798L9.47332 25.7241L14.4976 30.5998ZM14.4976 30.5998C16.7914 31.9515 19.4054 32.6641 22.0679 32.6633C22.0679 32.6633 22.068 32.6633 22.068 32.6633H22.0741C30.2717 32.6633 36.9463 26.0231 36.9495 17.8563L36.9495 17.8551M14.4976 30.5998L36.9495 17.8551M36.9495 17.8551C36.9419 13.9185 35.3709 10.1462 32.5821 7.36782C29.7935 4.58956 26.0155 3.03268 22.0792 3.03957C13.876 3.03977 7.19804 9.67866 7.19787 17.8449M36.9495 17.8551L7.19787 17.8449M29.7366 21.8963L29.7356 21.8958C29.5224 21.7894 28.885 21.4765 28.2518 21.1723C27.6031 20.8606 27.0025 20.5796 26.8352 20.5187C26.7389 20.4836 26.6712 20.4613 26.6157 20.4485C26.5696 20.4378 26.547 20.4374 26.5393 20.4378C26.539 20.438 26.5386 20.4382 26.5382 20.4385C26.5288 20.4451 26.4976 20.4704 26.4498 20.5419C26.1403 21.0058 25.2853 21.999 25.0432 22.2783C24.8686 22.4799 24.6378 22.6541 24.3229 22.6908C24.0305 22.725 23.7533 22.6285 23.5062 22.5052C23.4469 22.4756 23.361 22.4387 23.2517 22.3917C22.6569 22.1362 21.3707 21.5836 19.9216 20.2972C18.5773 19.1038 17.6787 17.6415 17.4184 17.1969C17.2323 16.8792 17.186 16.5563 17.3003 16.2497C17.3927 16.0016 17.5762 15.8208 17.6751 15.7233C17.6793 15.719 17.6835 15.715 17.6874 15.7111C17.7997 15.5996 17.9188 15.4549 18.0542 15.2905C18.1328 15.195 18.2169 15.0928 18.3084 14.9866C18.449 14.8232 18.5012 14.7174 18.6074 14.5015C18.6268 14.4621 18.648 14.419 18.6719 14.3713C18.6993 14.3164 18.7019 14.2783 18.6983 14.2444C18.6938 14.202 18.6767 14.1462 18.6366 14.0662C18.5719 13.9374 18.318 13.3271 18.0499 12.6787C17.9521 12.4422 17.8505 12.196 17.7522 11.9577C17.5737 11.5251 17.4058 11.1181 17.29 10.841C17.1375 10.4769 17.0271 10.4252 17.0204 10.422L17.0203 10.422C17.0139 10.419 17.002 10.4142 16.9654 10.4122C16.9447 10.411 16.9218 10.4109 16.8856 10.4111L16.8773 10.4112L29.7366 21.8963ZM29.7366 21.8963C29.8364 21.9458 29.9196 21.9857 29.992 22.0204C30.0965 22.0704 30.1784 22.1097 30.2553 22.1517C30.2966 22.1743 30.3242 22.1917 30.342 22.2037C30.3433 22.2147 30.3446 22.2278 30.3458 22.2434C30.3527 22.3315 30.3527 22.4591 30.3387 22.6202C30.3107 22.9413 30.2298 23.3657 30.0649 23.8273C29.9436 24.1668 29.5431 24.5713 28.9848 24.9272C28.439 25.2753 27.8665 25.4986 27.5446 25.5464L27.5444 25.5464C26.8417 25.6511 25.9833 25.6895 25.0472 25.3936L25.0441 25.3927C24.2243 25.1393 23.4184 24.8431 22.6296 24.5053C18.7153 22.8229 16.0539 19.0296 15.529 18.2815C15.4925 18.2294 15.4663 18.1921 15.4508 18.1712C15.448 18.1675 15.4449 18.1634 15.4417 18.1591C15.3249 18.0027 14.9166 17.4561 14.5327 16.704C14.1345 15.9237 13.7852 14.9655 13.7852 14.0211C13.7852 12.2409 14.646 11.325 15.0809 10.8623C15.1115 10.8297 15.1401 10.7993 15.1661 10.771L15.1662 10.7711L15.1729 10.7635C15.2722 10.6509 15.3936 10.5601 15.5296 10.4966C15.6638 10.4339 15.8093 10.3992 15.9573 10.3945C16.2389 10.3946 16.5169 10.3978 16.7542 10.4094L29.7366 21.8963ZM7.19787 17.8449C7.1949 20.6336 7.98388 23.3658 9.47301 25.7236L7.19787 17.8449ZM33.9551 6.03308L33.957 6.03492C35.5185 7.5809 36.757 9.42199 37.6004 11.4511C38.4438 13.4801 38.8752 15.6567 38.8696 17.854V17.8551C38.8651 27.0684 31.3318 34.5686 22.0741 34.5686H22.0671H22.0669C19.2637 34.5696 16.5046 33.8708 14.0398 32.5355L13.8663 32.4415L13.6753 32.4913L5.34478 34.6661L7.56895 26.5846L7.62459 26.3824L7.51938 26.201C6.04715 23.6629 5.27371 20.7801 5.27781 17.8459L5.27781 17.8454C5.28157 8.63146 12.8156 1.13192 22.0741 1.13192L22.0756 1.13191C24.2811 1.12521 26.4661 1.55479 28.5049 2.39594C30.5437 3.23709 32.396 4.47319 33.9551 6.03308ZM22.0741 0.631916C12.5416 0.631916 4.78168 8.3531 4.77781 17.8452C4.77359 20.8677 5.57031 23.8374 7.08687 26.4519L22.0741 0.631916Z" stroke="white"/>
</g>
<defs>
<filter id="filter0_d_688_16376" x="0.632812" y="0.631836" width="42.7383" height="42.7368" filterUnits="userSpaceOnUse" color-interpolation-filters="sRGB">
<feFlood flood-opacity="0" result="BackgroundImageFix"/>
<feColorMatrix in="SourceAlpha" type="matrix" values="0 0 0 0 0 0 0 0 0 0 0 0 0 0 0 0 0 0 127 0" result="hardAlpha"/>
<feOffset dy="4"/>
<feGaussianBlur stdDeviation="2"/>
<feComposite in2="hardAlpha" operator="out"/>
<feColorMatrix type="matrix" values="0 0 0 0 0 0 0 0 0 0 0 0 0 0 0 0 0 0 0.25 0"/>
<feBlend mode="normal" in2="BackgroundImageFix" result="effect1_dropShadow_688_16376"/>
<feBlend mode="normal" in="SourceGraphic" in2="effect1_dropShadow_688_16376" result="shape"/>
</filter>
</defs>
</svg>
